<mxfile host="app.diagrams.net" modified="2023-11-14T11:59:58.251Z" agent="Mozilla/5.0 (Windows NT 10.0; Win64; x64) AppleWebKit/537.36 (KHTML, like Gecko) Chrome/119.0.0.0 Safari/537.36" etag="8eeOtK2OYKhgGwcmfl-c" version="22.1.0" type="github">
  <diagram id="prtHgNgQTEPvFCAcTncT" name="Page-1">
    <mxGraphModel dx="1290" dy="542" grid="1" gridSize="10" guides="1" tooltips="1" connect="1" arrows="1" fold="1" page="1" pageScale="1" pageWidth="827" pageHeight="1169" math="0" shadow="0">
      <root>
        <mxCell id="0" />
        <mxCell id="1" parent="0" />
        <mxCell id="cB7DvBvC8rL1--WPOTw6-1" value="Creating a new template repo for students" style="swimlane;childLayout=stackLayout;resizeParent=1;resizeParentMax=0;horizontal=1;startSize=20;horizontalStack=0;html=1;" vertex="1" parent="1">
          <mxGeometry x="20" y="60" width="380" height="400" as="geometry" />
        </mxCell>
        <mxCell id="cB7DvBvC8rL1--WPOTw6-2" value="Github:&lt;br&gt;SintLucas-SD-Teachers" style="swimlane;startSize=50;horizontal=0;html=1;" vertex="1" parent="cB7DvBvC8rL1--WPOTw6-1">
          <mxGeometry y="20" width="380" height="160" as="geometry" />
        </mxCell>
        <mxCell id="cB7DvBvC8rL1--WPOTw6-24" value="" style="edgeStyle=orthogonalEdgeStyle;rounded=0;orthogonalLoop=1;jettySize=auto;html=1;" edge="1" parent="cB7DvBvC8rL1--WPOTw6-2" source="cB7DvBvC8rL1--WPOTw6-5" target="cB7DvBvC8rL1--WPOTw6-23">
          <mxGeometry relative="1" as="geometry" />
        </mxCell>
        <mxCell id="cB7DvBvC8rL1--WPOTw6-5" value="&lt;b&gt;Create a repository&lt;/b&gt;&lt;br&gt;sdx_practice_subject_2324&lt;br&gt;sdx_proj_subject_2324" style="rounded=0;whiteSpace=wrap;html=1;" vertex="1" parent="cB7DvBvC8rL1--WPOTw6-2">
          <mxGeometry x="128.75" y="10" width="170" height="60" as="geometry" />
        </mxCell>
        <mxCell id="cB7DvBvC8rL1--WPOTw6-23" value="&lt;b&gt;Add team/collaborator&lt;/b&gt;&lt;br&gt;Classroom_assignments" style="whiteSpace=wrap;html=1;rounded=0;" vertex="1" parent="cB7DvBvC8rL1--WPOTw6-2">
          <mxGeometry x="141.25" y="90" width="145" height="60" as="geometry" />
        </mxCell>
        <mxCell id="cB7DvBvC8rL1--WPOTw6-3" value="Copy repos" style="swimlane;startSize=50;horizontal=0;html=1;" vertex="1" parent="cB7DvBvC8rL1--WPOTw6-1">
          <mxGeometry y="180" width="380" height="120" as="geometry" />
        </mxCell>
        <mxCell id="cB7DvBvC8rL1--WPOTw6-25" value="&lt;b&gt;Run copy tool&lt;/b&gt;&lt;br&gt;Copy-New-Repos-From-Teacher-To-Student&lt;br&gt;(Repo&#39;s in Classroom_assignments team will be copied)" style="whiteSpace=wrap;html=1;rounded=0;" vertex="1" parent="cB7DvBvC8rL1--WPOTw6-3">
          <mxGeometry x="60" y="22.5" width="307.5" height="75" as="geometry" />
        </mxCell>
        <mxCell id="cB7DvBvC8rL1--WPOTw6-4" value="Github:&lt;br&gt;Sint-Lucas" style="swimlane;startSize=50;horizontal=0;html=1;" vertex="1" parent="cB7DvBvC8rL1--WPOTw6-1">
          <mxGeometry y="300" width="380" height="100" as="geometry" />
        </mxCell>
        <mxCell id="cB7DvBvC8rL1--WPOTw6-27" value="New repository was copied to this Github-organisation and ready for use in Github classroom" style="whiteSpace=wrap;html=1;rounded=0;" vertex="1" parent="cB7DvBvC8rL1--WPOTw6-4">
          <mxGeometry x="61.25" y="20" width="310" height="60" as="geometry" />
        </mxCell>
        <mxCell id="cB7DvBvC8rL1--WPOTw6-26" value="" style="edgeStyle=orthogonalEdgeStyle;rounded=0;orthogonalLoop=1;jettySize=auto;html=1;exitX=0.5;exitY=1;exitDx=0;exitDy=0;" edge="1" parent="cB7DvBvC8rL1--WPOTw6-1" source="cB7DvBvC8rL1--WPOTw6-23" target="cB7DvBvC8rL1--WPOTw6-25">
          <mxGeometry relative="1" as="geometry" />
        </mxCell>
        <mxCell id="cB7DvBvC8rL1--WPOTw6-28" value="" style="edgeStyle=orthogonalEdgeStyle;rounded=0;orthogonalLoop=1;jettySize=auto;html=1;" edge="1" parent="cB7DvBvC8rL1--WPOTw6-1" source="cB7DvBvC8rL1--WPOTw6-25" target="cB7DvBvC8rL1--WPOTw6-27">
          <mxGeometry relative="1" as="geometry" />
        </mxCell>
      </root>
    </mxGraphModel>
  </diagram>
</mxfile>
